<svg width="180" height="20" viewBox="0 0 180 20" fill="none" xmlns="http://www.w3.org/2000/svg">
<path d="M0.792 10.552C0.792 8.888 1.152 7.408 1.872 6.112C2.592 4.8 3.592 3.784 4.872 3.064C6.168 2.328 7.632 1.96 9.264 1.96C11.264 1.96 12.976 2.488 14.4 3.544C15.824 4.6 16.776 6.04 17.256 7.864H12.744C12.408 7.16 11.928 6.624 11.304 6.256C10.696 5.888 10 5.704 9.216 5.704C7.952 5.704 6.928 6.144 6.144 7.024C5.36 7.904 4.968 9.08 4.968 10.552C4.968 12.024 5.36 13.2 6.144 14.08C6.928 14.96 7.952 15.4 9.216 15.4C10 15.4 10.696 15.216 11.304 14.848C11.928 14.48 12.408 13.944 12.744 13.24H17.256C16.776 15.064 15.824 16.504 14.4 17.56C12.976 18.6 11.264 19.12 9.264 19.12C7.632 19.12 6.168 18.76 4.872 18.04C3.592 17.304 2.592 16.288 1.872 14.992C1.152 13.696 0.792 12.216 0.792 10.552ZM25.8653 19.192C24.5533 19.192 23.3693 18.912 22.3133 18.352C21.2733 17.792 20.4493 16.992 19.8413 15.952C19.2493 14.912 18.9533 13.696 18.9533 12.304C18.9533 10.928 19.2573 9.72 19.8652 8.68C20.4733 7.624 21.3053 6.816 22.3613 6.256C23.4173 5.696 24.6013 5.416 25.9133 5.416C27.2253 5.416 28.4093 5.696 29.4653 6.256C30.5213 6.816 31.3533 7.624 31.9613 8.68C32.5693 9.72 32.8733 10.928 32.8733 12.304C32.8733 13.68 32.5613 14.896 31.9373 15.952C31.3293 16.992 30.4893 17.792 29.4173 18.352C28.3613 18.912 27.1773 19.192 25.8653 19.192ZM25.8653 15.64C26.6493 15.64 27.3133 15.352 27.8573 14.776C28.4173 14.2 28.6973 13.376 28.6973 12.304C28.6973 11.232 28.4253 10.408 27.8813 9.832C27.3533 9.256 26.6973 8.968 25.9133 8.968C25.1133 8.968 24.4493 9.256 23.9213 9.832C23.3933 10.392 23.1293 11.216 23.1293 12.304C23.1293 13.376 23.3853 14.2 23.8973 14.776C24.4253 15.352 25.0813 15.64 25.8653 15.64ZM34.2345 12.28C34.2345 10.904 34.4905 9.696 35.0025 8.656C35.5305 7.616 36.2425 6.816 37.1385 6.256C38.0345 5.696 39.0345 5.416 40.1385 5.416C41.0185 5.416 41.8185 5.6 42.5385 5.968C43.2745 6.336 43.8505 6.832 44.2665 7.456V1.24H48.3705V19H44.2665V17.08C43.8825 17.72 43.3305 18.232 42.6105 18.616C41.9065 19 41.0825 19.192 40.1385 19.192C39.0345 19.192 38.0345 18.912 37.1385 18.352C36.2425 17.776 35.5305 16.968 35.0025 15.928C34.4905 14.872 34.2345 13.656 34.2345 12.28ZM44.2665 12.304C44.2665 11.28 43.9785 10.472 43.4025 9.88C42.8425 9.288 42.1545 8.992 41.3385 8.992C40.5225 8.992 39.8265 9.288 39.2505 9.88C38.6905 10.456 38.4105 11.256 38.4105 12.28C38.4105 13.304 38.6905 14.12 39.2505 14.728C39.8265 15.32 40.5225 15.616 41.3385 15.616C42.1545 15.616 42.8425 15.32 43.4025 14.728C43.9785 14.136 44.2665 13.328 44.2665 12.304ZM63.9636 12.088C63.9636 12.472 63.9396 12.872 63.8916 13.288H54.6036C54.6676 14.12 54.9316 14.76 55.3956 15.208C55.8756 15.64 56.4596 15.856 57.1476 15.856C58.1716 15.856 58.8836 15.424 59.2836 14.56H63.6516C63.4276 15.44 63.0196 16.232 62.4276 16.936C61.8516 17.64 61.1236 18.192 60.2436 18.592C59.3636 18.992 58.3796 19.192 57.2916 19.192C55.9796 19.192 54.8116 18.912 53.7876 18.352C52.7636 17.792 51.9636 16.992 51.3876 15.952C50.8116 14.912 50.5236 13.696 50.5236 12.304C50.5236 10.912 50.8036 9.696 51.3636 8.656C51.9396 7.616 52.7396 6.816 53.7636 6.256C54.7876 5.696 55.9636 5.416 57.2916 5.416C58.5876 5.416 59.7396 5.688 60.7476 6.232C61.7556 6.776 62.5396 7.552 63.0996 8.56C63.6756 9.568 63.9636 10.744 63.9636 12.088ZM59.7636 11.008C59.7636 10.304 59.5236 9.744 59.0436 9.328C58.5636 8.912 57.9636 8.704 57.2436 8.704C56.5556 8.704 55.9716 8.904 55.4916 9.304C55.0276 9.704 54.7396 10.272 54.6276 11.008H59.7636ZM70.2326 7.84C70.7126 7.104 71.3126 6.528 72.0326 6.112C72.7526 5.68 73.5526 5.464 74.4326 5.464V9.808H73.3046C72.2806 9.808 71.5126 10.032 71.0006 10.48C70.4886 10.912 70.2326 11.68 70.2326 12.784V19H66.1286V5.608H70.2326V7.84Z" fill="#2F80ED"/>
<path d="M84.3383 19.168C82.7863 19.168 81.3703 18.808 80.0903 18.088C78.8103 17.352 77.7943 16.336 77.0423 15.04C76.3063 13.728 75.9383 12.256 75.9383 10.624C75.9383 8.992 76.3063 7.528 77.0423 6.232C77.7943 4.92 78.8103 3.904 80.0903 3.184C81.3703 2.448 82.7863 2.08 84.3383 2.08C85.9063 2.08 87.3303 2.448 88.6103 3.184C89.8903 3.904 90.8983 4.912 91.6343 6.208C92.3703 7.504 92.7383 8.976 92.7383 10.624C92.7383 12.272 92.3703 13.744 91.6343 15.04C90.8983 16.336 89.8903 17.352 88.6103 18.088C87.3303 18.808 85.9063 19.168 84.3383 19.168ZM84.3383 17.272C85.5063 17.272 86.5543 17 87.4823 16.456C88.4263 15.912 89.1623 15.136 89.6903 14.128C90.2343 13.12 90.5063 11.952 90.5063 10.624C90.5063 9.28 90.2343 8.112 89.6903 7.12C89.1623 6.112 88.4343 5.336 87.5063 4.792C86.5783 4.248 85.5223 3.976 84.3383 3.976C83.1543 3.976 82.0983 4.248 81.1703 4.792C80.2423 5.336 79.5063 6.112 78.9623 7.12C78.4343 8.112 78.1703 9.28 78.1703 10.624C78.1703 11.952 78.4343 13.12 78.9623 14.128C79.5063 15.136 80.2423 15.912 81.1703 16.456C82.1143 17 83.1703 17.272 84.3383 17.272ZM100.517 16.984L104.597 5.848H106.925L101.765 19H99.2214L94.0614 5.848H96.4134L100.517 16.984ZM121.075 11.92C121.075 12.336 121.051 12.776 121.003 13.24H110.491C110.571 14.536 111.011 15.552 111.811 16.288C112.627 17.008 113.611 17.368 114.763 17.368C115.707 17.368 116.491 17.152 117.115 16.72C117.755 16.272 118.203 15.68 118.459 14.944H120.811C120.459 16.208 119.755 17.24 118.699 18.04C117.643 18.824 116.331 19.216 114.763 19.216C113.515 19.216 112.395 18.936 111.403 18.376C110.427 17.816 109.659 17.024 109.099 16C108.539 14.96 108.259 13.76 108.259 12.4C108.259 11.04 108.531 9.848 109.075 8.824C109.619 7.8 110.379 7.016 111.355 6.472C112.347 5.912 113.483 5.632 114.763 5.632C116.011 5.632 117.115 5.904 118.075 6.448C119.035 6.992 119.771 7.744 120.283 8.704C120.811 9.648 121.075 10.72 121.075 11.92ZM118.819 11.464C118.819 10.632 118.635 9.92 118.267 9.328C117.899 8.72 117.395 8.264 116.755 7.96C116.131 7.64 115.435 7.48 114.667 7.48C113.563 7.48 112.619 7.832 111.835 8.536C111.067 9.24 110.627 10.216 110.515 11.464H118.819ZM126.141 7.984C126.525 7.232 127.069 6.648 127.773 6.232C128.493 5.816 129.365 5.608 130.389 5.608V7.864H129.813C127.365 7.864 126.141 9.192 126.141 11.848V19H123.957V5.848H126.141V7.984ZM138.263 7.648H135.503V19H133.319V7.648H131.615V5.848H133.319V4.912C133.319 3.44 133.695 2.368 134.447 1.696C135.215 1.008 136.439 0.663999 138.118 0.663999V2.488C137.159 2.488 136.479 2.68 136.079 3.064C135.695 3.432 135.503 4.048 135.503 4.912V5.848H138.263V7.648ZM142.993 1.24V19H140.809V1.24H142.993ZM152.451 19.216C151.219 19.216 150.099 18.936 149.091 18.376C148.099 17.816 147.315 17.024 146.739 16C146.179 14.96 145.899 13.76 145.899 12.4C145.899 11.056 146.187 9.872 146.763 8.848C147.355 7.808 148.155 7.016 149.163 6.472C150.171 5.912 151.299 5.632 152.547 5.632C153.795 5.632 154.923 5.912 155.931 6.472C156.939 7.016 157.731 7.8 158.307 8.824C158.899 9.848 159.195 11.04 159.195 12.4C159.195 13.76 158.891 14.96 158.283 16C157.691 17.024 156.883 17.816 155.859 18.376C154.835 18.936 153.699 19.216 152.451 19.216ZM152.451 17.296C153.235 17.296 153.971 17.112 154.659 16.744C155.347 16.376 155.899 15.824 156.315 15.088C156.747 14.352 156.963 13.456 156.963 12.4C156.963 11.344 156.755 10.448 156.339 9.712C155.923 8.976 155.379 8.432 154.707 8.08C154.035 7.712 153.307 7.528 152.523 7.528C151.723 7.528 150.987 7.712 150.315 8.08C149.659 8.432 149.131 8.976 148.731 9.712C148.331 10.448 148.131 11.344 148.131 12.4C148.131 13.472 148.323 14.376 148.707 15.112C149.107 15.848 149.635 16.4 150.291 16.768C150.947 17.12 151.667 17.296 152.451 17.296ZM179.587 5.848L175.483 19H173.227L170.059 8.56L166.891 19H164.635L160.507 5.848H162.739L165.763 16.888L169.027 5.848H171.259L174.451 16.912L177.427 5.848H179.587Z" fill="black"/>
</svg>
